<svg width="62" height="62" viewBox="0 0 62 62" fill="none" xmlns="http://www.w3.org/2000/svg">
<path d="M56.8333 45.501H7.06787L9.3102 19.5443C9.40308 18.4696 10.2883 17.659 11.3692 17.659H13.0458V21.9127H11.7542C11.1835 21.9127 10.7208 22.3744 10.7208 22.9439C10.7208 23.5133 11.1835 23.9751 11.7542 23.9751H30.8708C31.4415 23.9751 31.9042 23.5133 31.9042 22.9439C31.9042 22.3744 31.4415 21.9127 30.8708 21.9127H29.5792V5.15593C29.5792 4.36475 28.721 3.86862 28.0332 4.2606L24.9292 6.03063L21.8252 4.2606C21.5074 4.07963 21.1175 4.07963 20.7998 4.2606L17.6958 6.03063L14.5918 4.2606C13.9032 3.86823 13.0458 4.36578 13.0458 5.15593V15.5967H11.3692C9.20726 15.5967 7.4369 17.2176 7.25129 19.3671L4.9932 45.5054C2.22451 45.5972 0 47.8721 0 50.657V56.8441C0 59.6871 2.31777 62 5.16667 62H56.8333C59.6822 62 62 59.6871 62 56.8441V50.657C62 47.814 59.6822 45.501 56.8333 45.501ZM15.1125 6.93279L17.1832 8.11362C17.5009 8.29459 17.8909 8.29459 18.2085 8.11362L21.3125 6.34359L24.4165 8.11362C24.7343 8.29459 25.1242 8.29459 25.4418 8.11362L27.5125 6.93279V21.9127H15.1125V6.93279ZM59.9333 56.8441C59.9333 58.5498 58.5426 59.9376 56.8333 59.9376H5.16667C3.4574 59.9376 2.06667 58.5498 2.06667 56.8441V50.657C2.06667 48.9513 3.4574 47.5634 5.16667 47.5634H56.8333C58.5426 47.5634 59.9333 48.9513 59.9333 50.657V56.8441ZM32.0333 16.6279C32.0333 16.0584 32.496 15.5967 33.0667 15.5967H39.9125V14.3077C39.9125 13.7382 40.3752 13.2765 40.9458 13.2765C41.5165 13.2765 41.9792 13.7382 41.9792 14.3077V15.5967H47.4042V14.3077C47.4042 13.7382 47.8668 13.2765 48.4375 13.2765C49.0082 13.2765 49.4708 13.7382 49.4708 14.3077V15.5967H50.6308C52.7927 15.5967 54.5631 17.2176 54.7487 19.3671L56.59 40.6809C56.6391 41.2483 56.2179 41.7479 55.6493 41.7969C55.0743 41.8448 54.5796 41.4208 54.5311 40.8581L52.6898 19.5443C52.5969 18.4696 51.7117 17.659 50.6308 17.659H33.0667C32.496 17.659 32.0333 17.1973 32.0333 16.6279ZM38.2333 11.8586H51.15C53.4291 11.8586 55.2833 10.0083 55.2833 7.73389V4.12474C55.2833 1.85033 53.4291 0 51.15 0H38.2333C35.9542 0 34.1 1.85033 34.1 4.12474V7.73389C34.1 10.0083 35.9542 11.8586 38.2333 11.8586ZM36.1667 4.12474C36.1667 2.9876 37.0938 2.06237 38.2333 2.06237H51.15C52.2895 2.06237 53.2167 2.9876 53.2167 4.12474V7.73389C53.2167 8.87103 52.2895 9.79626 51.15 9.79626H38.2333C37.0938 9.79626 36.1667 8.87103 36.1667 7.73389V4.12474ZM16.1458 29.0021C14.4366 29.0021 13.0458 30.3899 13.0458 32.0956V36.736C13.0458 38.4417 14.4366 39.8295 16.1458 39.8295H26.4792C28.1884 39.8295 29.5792 38.4417 29.5792 36.736V32.0956C29.5792 30.3899 28.1884 29.0021 26.4792 29.0021H16.1458ZM27.5125 32.0956V36.736C27.5125 37.3045 27.0489 37.7672 26.4792 37.7672H16.1458C15.5761 37.7672 15.1125 37.3045 15.1125 36.736V32.0956C15.1125 31.5271 15.5761 31.0644 16.1458 31.0644H26.4792C27.0489 31.0644 27.5125 31.5271 27.5125 32.0956ZM37.2 29.3888C37.2 29.9582 36.7373 30.42 36.1667 30.42H35.0042C34.4335 30.42 33.9708 29.9582 33.9708 29.3888C33.9708 28.8193 34.4335 28.3576 35.0042 28.3576H36.1667C36.7373 28.3576 37.2 28.8193 37.2 29.3888ZM43.6583 29.3888C43.6583 29.9582 43.1957 30.42 42.625 30.42H41.4625C40.8918 30.42 40.4292 29.9582 40.4292 29.3888C40.4292 28.8193 40.8918 28.3576 41.4625 28.3576H42.625C43.1957 28.3576 43.6583 28.8193 43.6583 29.3888ZM50.1167 29.3888C50.1167 29.9582 49.654 30.42 49.0833 30.42H47.9208C47.3502 30.42 46.8875 29.9582 46.8875 29.3888C46.8875 28.8193 47.3502 28.3576 47.9208 28.3576H49.0833C49.654 28.3576 50.1167 28.8193 50.1167 29.3888ZM37.2 37.1227C37.2 37.6921 36.7373 38.1538 36.1667 38.1538H35.0042C34.4335 38.1538 33.9708 37.6921 33.9708 37.1227C33.9708 36.5532 34.4335 36.0915 35.0042 36.0915H36.1667C36.7373 36.0915 37.2 36.5532 37.2 37.1227ZM43.6583 37.1227C43.6583 37.6921 43.1957 38.1538 42.625 38.1538H41.4625C40.8918 38.1538 40.4292 37.6921 40.4292 37.1227C40.4292 36.5532 40.8918 36.0915 41.4625 36.0915H42.625C43.1957 36.0915 43.6583 36.5532 43.6583 37.1227ZM50.1167 37.1227C50.1167 37.6921 49.654 38.1538 49.0833 38.1538H47.9208C47.3502 38.1538 46.8875 37.6921 46.8875 37.1227C46.8875 36.5532 47.3502 36.0915 47.9208 36.0915H49.0833C49.654 36.0915 50.1167 36.5532 50.1167 37.1227Z" fill="#040B1E"/>
</svg>
