<svg width="16" height="16" viewBox="0 0 16 16" fill="none" xmlns="http://www.w3.org/2000/svg">
<circle cx="8" cy="8" r="8" fill="#1BBDD4"/>
<path d="M12.3192 6.16604L7.15 11.5195C7.06923 11.6 7.02885 11.6 6.90769 11.6C6.82692 11.6 6.70577 11.5598 6.66538 11.5195L4.16154 8.82265L4.08077 8.74214C4.04038 8.66164 4 8.58114 4 8.50063C4 8.42013 4.04038 8.33963 4.08077 8.25912L4.525 7.81636C4.64615 7.6956 4.84808 7.6956 4.96923 7.81636L5.00962 7.85661L6.82692 9.78868C6.90769 9.86919 6.98846 9.86919 7.06923 9.78868L11.35 5.28051H11.3904C11.5115 5.15975 11.7135 5.15975 11.8346 5.28051L12.2788 5.72327C12.4404 5.84403 12.4404 6.04529 12.3192 6.16604Z" fill="white"/>
</svg>
