<svg width="27" height="20" viewBox="0 0 27 20" fill="none" xmlns="http://www.w3.org/2000/svg">
<path d="M24.0813 11.36H2.71758C1.46145 11.36 0.439453 12.4259 0.439453 13.736V17.624C0.439453 18.9341 1.46145 20 2.71758 20H24.0813C25.3375 20 26.3595 18.9341 26.3595 17.624V13.736C26.3595 12.4259 25.3375 11.36 24.0813 11.36ZM24.8407 17.624C24.8407 18.0606 24.5 18.416 24.0813 18.416H2.71758C2.29893 18.416 1.9582 18.0606 1.9582 17.624V13.736C1.9582 13.2994 2.29893 12.944 2.71758 12.944H24.0813C24.5 12.944 24.8407 13.2994 24.8407 13.736V17.624Z" fill="#040B1E"/>
<path d="M12.426 11.36C12.7017 10.8834 12.8595 10.3301 12.8595 9.74C12.8595 7.9506 11.4089 6.5 9.61945 6.5C7.83005 6.5 6.37945 7.9506 6.37945 9.74C6.37945 10.3301 6.53723 10.8834 6.81291 11.36H5.036C4.8569 10.8533 4.75945 10.308 4.75945 9.74C4.75945 7.05589 6.93535 4.88 9.61945 4.88C12.3036 4.88 14.4795 7.05589 14.4795 9.74C14.4795 10.308 14.382 10.8533 14.2029 11.36H12.426Z" fill="#040B1E"/>
<path d="M13.0048 6.25301L20.3419 2.72224L23.1672 8.59323L17.4177 11.36H21.1537L25.3294 9.35053L21.0992 0.559998L11.4125 5.22145C12.0108 5.45907 12.5507 5.81208 13.0048 6.25301Z" fill="#040B1E"/>
<path d="M4.84267 11.36L5.036 11.36C4.8569 10.8533 4.75945 10.308 4.75945 9.74C4.75945 9.2467 4.83295 8.77054 4.96959 8.32193L3.67945 8.94277L4.84267 11.36Z" fill="#040B1E"/>
<path d="M14.4795 15.68C14.4795 16.2765 13.9959 16.76 13.3995 16.76C12.803 16.76 12.3195 16.2765 12.3195 15.68C12.3195 15.0835 12.803 14.6 13.3995 14.6C13.9959 14.6 14.4795 15.0835 14.4795 15.68Z" fill="#040B1E"/>
</svg>
