<svg width="26" height="25" viewBox="0 0 26 25" fill="none" xmlns="http://www.w3.org/2000/svg">
<path d="M23.6419 0.619995H2.27813C1.02199 0.619995 0 1.6859 0 2.996V22.004C0 23.3141 1.02199 24.38 2.27813 24.38H23.6419C24.898 24.38 25.92 23.3141 25.92 22.004V2.996C25.92 1.6859 24.898 0.619995 23.6419 0.619995ZM24.4013 22.004C24.4013 22.4406 24.0605 22.796 23.6419 22.796H2.27813C1.85948 22.796 1.51875 22.4406 1.51875 22.004V2.996C1.51875 2.55936 1.85948 2.204 2.27813 2.204H23.6419C24.0605 2.204 24.4013 2.55936 24.4013 2.996V22.004Z" fill="black"/>
<path d="M22.0725 3.788H3.8475C3.42806 3.788 3.08812 4.14254 3.08812 4.58V14.084C3.08812 14.5215 3.42806 14.876 3.8475 14.876H4.60687V17.252C4.60687 17.6895 4.94681 18.044 5.36625 18.044H7.64437V20.42C7.64437 20.8575 7.98431 21.212 8.40375 21.212H17.5163C17.9357 21.212 18.2756 20.8575 18.2756 20.42V18.044H20.5538C20.9732 18.044 21.3131 17.6895 21.3131 17.252V14.876H22.0725C22.4919 14.876 22.8319 14.5215 22.8319 14.084V4.58C22.8319 4.14254 22.4919 3.788 22.0725 3.788ZM21.3131 13.292H20.5538C20.1343 13.292 19.7944 13.6465 19.7944 14.084V16.46H17.5163C17.0968 16.46 16.7569 16.8145 16.7569 17.252V19.628H9.16313V17.252C9.16313 16.8145 8.82319 16.46 8.40375 16.46H6.12563V14.084C6.12563 13.6465 5.78569 13.292 5.36625 13.292H4.60687V5.37199H21.3131V13.292Z" fill="black"/>
<path d="M5.36625 19.628H3.8475C3.42806 19.628 3.08812 19.9825 3.08812 20.42C3.08812 20.8575 3.42806 21.212 3.8475 21.212H5.36625C5.78569 21.212 6.12563 20.8575 6.12563 20.42C6.12563 19.9825 5.78569 19.628 5.36625 19.628Z" fill="black"/>
<path d="M22.0725 19.628H20.5538C20.1343 19.628 19.7944 19.9825 19.7944 20.42C19.7944 20.8575 20.1343 21.212 20.5538 21.212H22.0725C22.4919 21.212 22.8319 20.8575 22.8319 20.42C22.8319 19.9825 22.4919 19.628 22.0725 19.628Z" fill="black"/>
<path d="M6.885 11.708C7.30444 11.708 7.64437 11.3535 7.64437 10.916V7.74799C7.64437 7.31054 7.30444 6.956 6.885 6.956C6.46556 6.956 6.12563 7.31054 6.12563 7.74799V10.916C6.12563 11.3535 6.46556 11.708 6.885 11.708Z" fill="black"/>
<path d="M9.9225 11.708C10.3419 11.708 10.6819 11.3535 10.6819 10.916V7.74799C10.6819 7.31054 10.3419 6.956 9.9225 6.956C9.50306 6.956 9.16313 7.31054 9.16313 7.74799V10.916C9.16313 11.3535 9.50306 11.708 9.9225 11.708Z" fill="black"/>
<path d="M12.96 11.708C13.3794 11.708 13.7194 11.3535 13.7194 10.916V7.74799C13.7194 7.31054 13.3794 6.956 12.96 6.956C12.5406 6.956 12.2006 7.31054 12.2006 7.74799V10.916C12.2006 11.3535 12.5406 11.708 12.96 11.708Z" fill="black"/>
<path d="M15.9975 11.708C16.4169 11.708 16.7569 11.3535 16.7569 10.916V7.74799C16.7569 7.31054 16.4169 6.956 15.9975 6.956C15.5781 6.956 15.2381 7.31054 15.2381 7.74799V10.916C15.2381 11.3535 15.5781 11.708 15.9975 11.708Z" fill="black"/>
<path d="M19.035 11.708C19.4544 11.708 19.7944 11.3535 19.7944 10.916V7.74799C19.7944 7.31054 19.4544 6.956 19.035 6.956C18.6156 6.956 18.2756 7.31054 18.2756 7.74799V10.916C18.2756 11.3535 18.6156 11.708 19.035 11.708Z" fill="black"/>
</svg>
