<svg width="26" height="27" viewBox="0 0 26 27" fill="none" xmlns="http://www.w3.org/2000/svg">
<path d="M22.2315 7.36515L21.5413 6.98171V0H16.3069V6.98171L15.6166 7.36515C13.8101 8.36852 12.6879 10.2476 12.6879 12.2692V27H25.1603V12.2692C25.1603 10.2476 24.0381 8.36852 22.2315 7.36515ZM19.911 1.58367V2.83743H17.9372V1.58367H19.911ZM14.3181 25.4163V12.2692C14.3181 10.8143 15.1257 9.46202 16.4258 8.73993L17.9371 7.90045V4.42109H19.9109V7.90045L21.4223 8.73993C22.512 9.34516 23.2554 10.3933 23.4675 11.5733H16.2809V23.4584H23.5301V25.4163H14.3181ZM23.5301 13.157V21.8747H17.9112V13.157H23.5301Z" fill="black"/>
<path d="M0.320312 14.8307C0.320312 17.3658 2.23963 19.4735 4.74084 19.855V25.4163H1.78933V27H9.32265V25.4163H6.37115V19.855C8.8723 19.4735 10.7916 17.3658 10.7916 14.8307V9.74463H0.320312V14.8307ZM5.55599 18.333C3.6902 18.333 2.15104 16.9491 1.9688 15.1825H9.14313C8.96089 16.9491 7.42174 18.333 5.55599 18.333ZM9.16132 11.3283V13.5988H1.95056V11.3283H9.16132Z" fill="black"/>
</svg>
