<svg width="307" height="46" viewBox="0 0 307 46" fill="none" xmlns="http://www.w3.org/2000/svg">
<path d="M11.5837 36.4505C9.47096 36.4505 7.40678 36.2198 5.39116 35.7584C3.39983 35.2727 1.76063 34.6291 0.473548 33.8277L3.24198 27.5623C4.45621 28.2666 5.81614 28.8373 7.32178 29.2744C8.82742 29.6872 10.2723 29.8937 11.6566 29.8937C12.8465 29.8937 13.6965 29.7844 14.2064 29.5658C14.7164 29.323 14.9714 28.9708 14.9714 28.5094C14.9714 27.9752 14.6314 27.5745 13.9515 27.3074C13.2958 27.0402 12.203 26.7488 10.673 26.4331C8.706 26.0203 7.06679 25.5832 5.75543 25.1217C4.44407 24.6361 3.30269 23.859 2.33131 22.7904C1.35993 21.6976 0.874242 20.2284 0.874242 18.3828C0.874242 16.78 1.32351 15.3229 2.22203 14.0116C3.12056 12.7002 4.45621 11.6681 6.22898 10.9153C8.02603 10.1625 10.1995 9.78608 12.7494 9.78608C14.4979 9.78608 16.2099 9.98035 17.8855 10.3689C19.5855 10.7332 21.079 11.2796 22.366 12.0081L19.7797 18.2371C17.2784 16.9743 14.9107 16.3429 12.6765 16.3429C10.4666 16.3429 9.36168 16.8772 9.36168 17.9457C9.36168 18.4556 9.68952 18.8442 10.3452 19.1113C11.0009 19.3542 12.0815 19.6213 13.5872 19.9127C15.5299 20.277 17.1692 20.702 18.5048 21.1877C19.8404 21.6491 20.994 22.414 21.9653 23.4825C22.961 24.5511 23.4588 26.0081 23.4588 27.8538C23.4588 29.4565 23.0096 30.9136 22.1111 32.225C21.2125 33.512 19.8647 34.5441 18.0677 35.3212C16.2949 36.0741 14.1336 36.4505 11.5837 36.4505ZM38.2928 10.3689C40.6484 10.3689 42.7004 10.7575 44.4489 11.5346C46.1974 12.3117 47.5452 13.4288 48.4923 14.8858C49.4394 16.3429 49.9129 18.0428 49.9129 19.9856C49.9129 21.9283 49.4394 23.6283 48.4923 25.0853C47.5452 26.5424 46.1974 27.6595 44.4489 28.4366C42.7004 29.2137 40.6484 29.6022 38.2928 29.6022H34.6137V35.8676H26.017V10.3689H38.2928ZM37.7464 22.9726C38.912 22.9726 39.7863 22.7176 40.3691 22.2076C40.9519 21.6733 41.2434 20.9327 41.2434 19.9856C41.2434 19.0385 40.9519 18.3099 40.3691 17.8C39.7863 17.2657 38.912 16.9986 37.7464 16.9986H34.6137V22.9726H37.7464ZM73.1313 22.5354C74.6369 23.094 75.8026 23.9075 76.6283 24.976C77.4539 26.0446 77.8668 27.3316 77.8668 28.8373C77.8668 31.0715 76.944 32.8078 75.0983 34.0463C73.2527 35.2605 70.5814 35.8676 67.0844 35.8676H52.7323V10.3689H66.3559C69.7557 10.3689 72.3178 10.976 74.042 12.1902C75.7904 13.4045 76.6647 15.0194 76.6647 17.035C76.6647 18.2249 76.3611 19.2935 75.754 20.2406C75.1712 21.1877 74.2969 21.9526 73.1313 22.5354ZM61.1833 16.3793V20.1677H65.1903C67.0602 20.1677 67.9951 19.5363 67.9951 18.2735C67.9951 17.0107 67.0602 16.3793 65.1903 16.3793H61.1833ZM66.3559 29.8572C68.2501 29.8572 69.1972 29.1894 69.1972 27.8538C69.1972 26.5181 68.2501 25.8503 66.3559 25.8503H61.1833V29.8572H66.3559ZM80.469 22.244H91.397V28.4366H80.469V22.244ZM105.481 27.4166L103.551 29.5658V35.8676H95.0998V10.3689H103.551V19.6213L111.929 10.3689H121.291L111.091 21.5884L121.801 35.8676H111.856L105.481 27.4166ZM139.048 31.4236H129.359L127.647 35.8676H118.904L130.051 10.3689H138.502L149.649 35.8676H140.76L139.048 31.4236ZM136.681 25.231L134.204 18.8199L131.727 25.231H136.681ZM160.528 36.4505C158.415 36.4505 156.351 36.2198 154.335 35.7584C152.344 35.2727 150.705 34.6291 149.418 33.8277L152.186 27.5623C153.4 28.2666 154.76 28.8373 156.266 29.2744C157.772 29.6872 159.217 29.8937 160.601 29.8937C161.791 29.8937 162.641 29.7844 163.151 29.5658C163.661 29.323 163.916 28.9708 163.916 28.5094C163.916 27.9752 163.576 27.5745 162.896 27.3074C162.24 27.0402 161.147 26.7488 159.617 26.4331C157.65 26.0203 156.011 25.5832 154.7 25.1217C153.388 24.6361 152.247 23.859 151.276 22.7904C150.304 21.6976 149.818 20.2284 149.818 18.3828C149.818 16.78 150.268 15.3229 151.166 14.0116C152.065 12.7002 153.4 11.6681 155.173 10.9153C156.97 10.1625 159.144 9.78608 161.694 9.78608C163.442 9.78608 165.154 9.98035 166.83 10.3689C168.53 10.7332 170.023 11.2796 171.31 12.0081L168.724 18.2371C166.223 16.9743 163.855 16.3429 161.621 16.3429C159.411 16.3429 158.306 16.8772 158.306 17.9457C158.306 18.4556 158.634 18.8442 159.289 19.1113C159.945 19.3542 161.026 19.6213 162.531 19.9127C164.474 20.277 166.113 20.702 167.449 21.1877C168.785 21.6491 169.938 22.414 170.91 23.4825C171.905 24.5511 172.403 26.0081 172.403 27.8538C172.403 29.4565 171.954 30.9136 171.055 32.225C170.157 33.512 168.809 34.5441 167.012 35.3212C165.239 36.0741 163.078 36.4505 160.528 36.4505ZM184.469 36.4505C182.356 36.4505 180.292 36.2198 178.276 35.7584C176.285 35.2727 174.645 34.6291 173.358 33.8277L176.127 27.5623C177.341 28.2666 178.701 28.8373 180.207 29.2744C181.712 29.6872 183.157 29.8937 184.541 29.8937C185.731 29.8937 186.581 29.7844 187.091 29.5658C187.601 29.323 187.856 28.9708 187.856 28.5094C187.856 27.9752 187.516 27.5745 186.836 27.3074C186.181 27.0402 185.088 26.7488 183.558 26.4331C181.591 26.0203 179.952 25.5832 178.64 25.1217C177.329 24.6361 176.188 23.859 175.216 22.7904C174.245 21.6976 173.759 20.2284 173.759 18.3828C173.759 16.78 174.208 15.3229 175.107 14.0116C176.005 12.7002 177.341 11.6681 179.114 10.9153C180.911 10.1625 183.084 9.78608 185.634 9.78608C187.383 9.78608 189.095 9.98035 190.77 10.3689C192.47 10.7332 193.964 11.2796 195.251 12.0081L192.665 18.2371C190.163 16.9743 187.796 16.3429 185.561 16.3429C183.351 16.3429 182.247 16.8772 182.247 17.9457C182.247 18.4556 182.574 18.8442 183.23 19.1113C183.886 19.3542 184.966 19.6213 186.472 19.9127C188.415 20.277 190.054 20.702 191.39 21.1877C192.725 21.6491 193.879 22.414 194.85 23.4825C195.846 24.5511 196.344 26.0081 196.344 27.8538C196.344 29.4565 195.894 30.9136 194.996 32.225C194.097 33.512 192.75 34.5441 190.953 35.3212C189.18 36.0741 187.018 36.4505 184.469 36.4505ZM216.277 31.4236H206.588L204.876 35.8676H196.133L207.28 10.3689H215.731L226.878 35.8676H217.989L216.277 31.4236ZM213.91 25.231L211.433 18.8199L208.956 25.231H213.91Z" fill="#15499F"/>
<path d="M264.226 29.4565H261.895V35.8676H253.298V10.3689H265.574C267.929 10.3689 269.981 10.7575 271.73 11.5346C273.478 12.3117 274.826 13.4288 275.773 14.8858C276.72 16.3429 277.194 18.0428 277.194 19.9856C277.194 21.8069 276.781 23.3975 275.955 24.7575C275.13 26.1174 273.94 27.1981 272.385 27.9995L277.74 35.8676H268.561L264.226 29.4565ZM268.524 19.9856C268.524 19.0385 268.233 18.3099 267.65 17.8C267.067 17.2657 266.193 16.9986 265.027 16.9986H261.895V22.9726H265.027C266.193 22.9726 267.067 22.7176 267.65 22.2076C268.233 21.6733 268.524 20.9327 268.524 19.9856ZM292.643 36.4505C288.733 36.4505 285.685 35.3941 283.5 33.2813C281.314 31.1686 280.221 28.2059 280.221 24.3932V10.3689H288.818V24.1382C288.818 26.0081 289.146 27.3681 289.802 28.218C290.482 29.068 291.453 29.493 292.716 29.493C293.979 29.493 294.938 29.068 295.594 28.218C296.274 27.3681 296.614 26.0081 296.614 24.1382V10.3689H305.065V24.3932C305.065 28.2059 303.972 31.1686 301.786 33.2813C299.601 35.3941 296.553 36.4505 292.643 36.4505Z" fill="#15499F"/>
<circle cx="239.366" cy="24.7727" r="3.41501" fill="#1BBDD4"/>
</svg>
