<svg width="57" height="105" viewBox="0 0 57 105" fill="none" xmlns="http://www.w3.org/2000/svg">
<ellipse opacity="0.22" cx="27.5" cy="86.5" rx="23.5" ry="2.5" fill="#040B1E"/>
<path d="M27.5113 85.3842C22.4935 85.3842 17.5911 84.8363 12.804 83.7405C8.0746 82.5869 4.18149 81.0585 1.12468 79.1552L7.69971 64.2749C10.5835 65.9475 13.8133 67.3029 17.3892 68.341C20.9651 69.3215 24.3968 69.8118 27.6843 69.8118C30.5105 69.8118 32.5291 69.5522 33.7403 69.0331C34.9515 68.4564 35.5571 67.6201 35.5571 66.5243C35.5571 65.2554 34.7496 64.3037 33.1347 63.6693C31.5775 63.0349 28.9821 62.3428 25.3485 61.593C20.6767 60.6125 16.7836 59.5743 13.6691 58.4785C10.5547 57.325 7.8439 55.4794 5.53687 52.9416C3.22984 50.3462 2.07633 46.8568 2.07633 42.4735C2.07633 38.6669 3.14333 35.2063 5.27733 32.0918C7.41133 28.9774 10.5835 26.5261 14.7938 24.7382C19.0618 22.9502 24.2238 22.0563 30.2798 22.0563C34.4324 22.0563 38.4985 22.5177 42.4782 23.4405C46.5155 24.3056 50.0625 25.6033 53.1193 27.3336L46.9769 42.1274C41.0363 39.1283 35.4129 37.6287 30.1067 37.6287C24.8582 37.6287 22.234 38.8976 22.234 41.4353C22.234 42.6465 23.0126 43.5693 24.5699 44.2038C26.1271 44.7805 28.6937 45.4149 32.2696 46.107C36.8836 46.9722 40.7767 47.9815 43.9489 49.135C47.1211 50.2309 49.8607 52.0477 52.1677 54.5854C54.5324 57.1231 55.7148 60.5837 55.7148 64.967C55.7148 68.7736 54.6477 72.2342 52.5137 75.3486C50.3797 78.4055 47.1787 80.8567 42.9107 82.7023C38.7004 84.4902 33.5673 85.3842 27.5113 85.3842Z" fill="#15499F"/>
</svg>
