<svg width="116" height="20" viewBox="0 0 116 20" fill="none" xmlns="http://www.w3.org/2000/svg">
<path d="M9.61958 1.17082C9.73932 0.802296 10.2607 0.802296 10.3804 1.17082L12.1553 6.63344C12.2089 6.79825 12.3625 6.90983 12.5358 6.90983H18.2795C18.667 6.90983 18.8281 7.40568 18.5146 7.63344L13.8678 11.0095C13.7276 11.1114 13.669 11.2919 13.7225 11.4567L15.4974 16.9193C15.6172 17.2879 15.1954 17.5943 14.8819 17.3666L10.2351 13.9905C10.0949 13.8886 9.90508 13.8886 9.76489 13.9905L5.11811 17.3666C4.80462 17.5943 4.38283 17.2879 4.50257 16.9193L6.27748 11.4567C6.33103 11.2919 6.27237 11.1114 6.13217 11.0095L1.48539 7.63344C1.17191 7.40568 1.33302 6.90983 1.72051 6.90983H7.46424C7.63753 6.90983 7.79112 6.79825 7.84467 6.63344L9.61958 1.17082Z" fill="#1BBDD4"/>
<path d="M33.6196 1.17082C33.7393 0.802296 34.2607 0.802296 34.3804 1.17082L36.1553 6.63344C36.2089 6.79825 36.3625 6.90983 36.5358 6.90983H42.2795C42.667 6.90983 42.8281 7.40568 42.5146 7.63344L37.8678 11.0095C37.7276 11.1114 37.669 11.2919 37.7225 11.4567L39.4974 16.9193C39.6172 17.2879 39.1954 17.5943 38.8819 17.3666L34.2351 13.9905C34.0949 13.8886 33.9051 13.8886 33.7649 13.9905L29.1181 17.3666C28.8046 17.5943 28.3828 17.2879 28.5026 16.9193L30.2775 11.4567C30.331 11.2919 30.2724 11.1114 30.1322 11.0095L25.4854 7.63344C25.1719 7.40568 25.333 6.90983 25.7205 6.90983H31.4642C31.6375 6.90983 31.7911 6.79825 31.8447 6.63344L33.6196 1.17082Z" fill="#1BBDD4"/>
<path d="M57.6196 1.17082C57.7393 0.802296 58.2607 0.802296 58.3804 1.17082L60.1553 6.63344C60.2089 6.79825 60.3625 6.90983 60.5358 6.90983H66.2795C66.667 6.90983 66.8281 7.40568 66.5146 7.63344L61.8678 11.0095C61.7276 11.1114 61.669 11.2919 61.7225 11.4567L63.4974 16.9193C63.6172 17.2879 63.1954 17.5943 62.8819 17.3666L58.2351 13.9905C58.0949 13.8886 57.9051 13.8886 57.7649 13.9905L53.1181 17.3666C52.8046 17.5943 52.3828 17.2879 52.5026 16.9193L54.2775 11.4567C54.331 11.2919 54.2724 11.1114 54.1322 11.0095L49.4854 7.63344C49.1719 7.40568 49.333 6.90983 49.7205 6.90983H55.4642C55.6375 6.90983 55.7911 6.79825 55.8447 6.63344L57.6196 1.17082Z" fill="#1BBDD4"/>
<path d="M81.6196 1.17082C81.7393 0.802296 82.2607 0.802296 82.3804 1.17082L84.1553 6.63344C84.2089 6.79825 84.3625 6.90983 84.5358 6.90983H90.2795C90.667 6.90983 90.8281 7.40568 90.5146 7.63344L85.8678 11.0095C85.7276 11.1114 85.669 11.2919 85.7225 11.4567L87.4974 16.9193C87.6172 17.2879 87.1954 17.5943 86.8819 17.3666L82.2351 13.9905C82.0949 13.8886 81.9051 13.8886 81.7649 13.9905L77.1181 17.3666C76.8046 17.5943 76.3828 17.2879 76.5026 16.9193L78.2775 11.4567C78.331 11.2919 78.2724 11.1114 78.1322 11.0095L73.4854 7.63344C73.1719 7.40568 73.333 6.90983 73.7205 6.90983H79.4642C79.6375 6.90983 79.7911 6.79825 79.8447 6.63344L81.6196 1.17082Z" fill="#1BBDD4"/>
<path d="M105.62 1.17082C105.739 0.802296 106.261 0.802296 106.38 1.17082L108.155 6.63344C108.209 6.79825 108.362 6.90983 108.536 6.90983H114.279C114.667 6.90983 114.828 7.40568 114.515 7.63344L109.868 11.0095C109.728 11.1114 109.669 11.2919 109.723 11.4567L111.497 16.9193C111.617 17.2879 111.195 17.5943 110.882 17.3666L106.235 13.9905C106.095 13.8886 105.905 13.8886 105.765 13.9905L101.118 17.3666C100.805 17.5943 100.383 17.2879 100.503 16.9193L102.277 11.4567C102.331 11.2919 102.272 11.1114 102.132 11.0095L97.4854 7.63344C97.1719 7.40568 97.333 6.90983 97.7205 6.90983H103.464C103.638 6.90983 103.791 6.79825 103.845 6.63344L105.62 1.17082Z" fill="#EAEAEA"/>
</svg>
