<svg width="16" height="16" viewBox="0 0 16 16" fill="none" xmlns="http://www.w3.org/2000/svg">
<path d="M10.9303 6.13033C11.2232 5.83744 11.2232 5.36256 10.9303 5.06967C10.6374 4.77678 10.1626 4.77678 9.86967 5.06967L8 6.93934L6.13033 5.06967C5.83744 4.77678 5.36256 4.77678 5.06967 5.06967C4.77678 5.36256 4.77678 5.83744 5.06967 6.13033L6.93934 8L5.06967 9.86967C4.77678 10.1626 4.77678 10.6374 5.06967 10.9303C5.36256 11.2232 5.83744 11.2232 6.13033 10.9303L8 9.06066L9.86967 10.9303C10.1626 11.2232 10.6374 11.2232 10.9303 10.9303C11.2232 10.6374 11.2232 10.1626 10.9303 9.86967L9.06066 8L10.9303 6.13033ZM15.25 8C15.25 12.0041 12.0041 15.25 8 15.25C3.99594 15.25 0.75 12.0041 0.75 8C0.75 3.99594 3.99594 0.75 8 0.75C12.0041 0.75 15.25 3.99594 15.25 8Z" stroke="#EAEAEA" stroke-width="1.5" stroke-linecap="round" stroke-linejoin="round"/>
</svg>
